<svg width="64" height="64" viewBox="0 0 64 64" fill="none" xmlns="http://www.w3.org/2000/svg">
<path d="M12.4613 16.7515L32.1984 5.74351V16.9418L51.9354 16.7515L32.1984 27.7595L12.4613 16.7515Z" fill="#767BE9"/>
<path d="M10.7167 16.7515C10.7167 16.1195 11.059 15.537 11.6112 15.229L31.3483 4.22102C31.8885 3.9197 32.5482 3.92691 33.0817 4.23999C33.6152 4.55306 33.9429 5.12515 33.9429 5.74348L33.9428 15.1813L51.9186 15.0081C52.716 15.0004 53.4172 15.5341 53.6217 16.3044C53.8262 17.0748 53.4819 17.8857 52.7856 18.274L33.0485 29.282C32.5201 29.5767 31.8767 29.5767 31.3483 29.282L11.6112 18.274C11.059 17.9661 10.7167 17.3835 10.7167 16.7515ZM32.1982 25.7629L45.1112 18.5609L32.2152 18.6852C31.7496 18.6897 31.3016 18.508 30.9708 18.1805C30.64 17.8531 30.4539 17.4071 30.4539 16.9418L30.4538 8.71309L16.0412 16.7515L32.1982 25.7629Z" fill="#767BE9"/>
<path d="M10.7168 16.8148C10.7168 16.1965 11.0443 15.6245 11.5777 15.3114C12.1111 14.9983 12.7705 14.9909 13.3108 15.2919L33.024 26.276C33.5765 26.5839 33.919 27.1666 33.919 27.7989V49.6799C33.919 50.2981 33.5914 50.8701 33.058 51.1832C32.5247 51.4964 31.8652 51.5038 31.3249 51.2027L11.6118 40.2186L11.5606 40.1889C11.0382 39.8742 10.7168 39.3083 10.7168 38.6958L10.7168 16.8148ZM30.4299 46.7117V28.823L14.2058 19.783V37.6716L30.4299 46.7117Z" fill="#767BE9"/>
<path d="M59.1047 36.7316C59.9462 36.2627 60.248 35.2008 59.7789 34.3598C59.3097 33.5187 58.2471 33.2171 57.4056 33.6859L37.6925 44.6701C36.8509 45.1389 36.5491 46.2009 37.0182 47.0419C37.4874 47.883 38.55 48.1846 39.3915 47.7157L59.1047 36.7316Z" fill="#767BE9"/>
<path d="M4.89534 36.4701C4.05382 36.0012 3.75195 34.9393 4.22112 34.0982C4.69029 33.2572 5.75285 32.9555 6.59438 33.4244L26.3075 44.4085C27.1491 44.8774 27.4509 45.9394 26.9817 46.7804C26.5126 47.6214 25.45 47.9231 24.6085 47.4542L4.89534 36.4701Z" fill="#767BE9"/>
<path d="M53.7194 16.8148C53.7194 16.1965 53.3918 15.6245 52.8584 15.3114C52.325 14.9983 51.6656 14.9909 51.1253 15.2919L31.4122 26.276C30.8596 26.5839 30.5172 27.1666 30.5172 27.7989L30.5172 49.6799C30.5172 50.2981 30.8447 50.8701 31.3781 51.1832C31.9115 51.4964 32.5709 51.5038 33.1112 51.2027L52.8244 40.2186L52.8755 40.1889C53.398 39.8742 53.7194 39.3083 53.7194 38.6958V16.8148ZM34.0062 46.7117L34.0062 28.823L50.2303 19.783V37.6716L34.0062 46.7117Z" fill="#767BE9"/>
<path d="M50.2303 20.9992C50.2303 20.0363 51.0114 19.2557 51.9748 19.2557C52.9383 19.2557 53.7194 20.0363 53.7194 20.9992V47.098C53.7194 48.0609 52.9383 48.8415 51.9748 48.8415C51.0114 48.8415 50.2303 48.0609 50.2303 47.098V20.9992Z" fill="#767BE9"/>
<path d="M10.7168 20.9992C10.7168 20.0363 11.4978 19.2557 12.4613 19.2557C13.4248 19.2557 14.2058 20.0363 14.2058 20.9992L14.2058 47.098C14.2058 48.0609 13.4248 48.8415 12.4613 48.8415C11.4978 48.8415 10.7168 48.0609 10.7168 47.098L10.7168 20.9992Z" fill="#767BE9"/>
<path d="M30.5171 32.1576C30.5171 31.1947 31.2982 30.4141 32.2617 30.4141C33.2251 30.4141 34.0062 31.1947 34.0062 32.1576L34.0062 58.2565C34.0062 59.2194 33.2252 60 32.2617 60C31.2982 60 30.5172 59.2194 30.5172 58.2565L30.5171 32.1576Z" fill="#767BE9"/>
</svg>
